<svg width="130" height="33" viewBox="0 0 130 33" fill="none" xmlns="http://www.w3.org/2000/svg">
<g id="6515a6d5f30daec433d0ac3a_logo-box-discord.svg" clip-path="url(#clip0_85_180)">
<path id="Vector" d="M27.3001 6.47451C25.2001 5.47451 23.0001 4.77451 20.6001 4.37451C20.3001 4.87451 20.0001 5.57451 19.7001 6.17451C17.2001 5.77451 14.8001 5.77451 12.3001 6.17451C12.1001 5.57451 11.7001 4.97451 11.4001 4.37451C9.20005 4.77451 7.00005 5.57451 4.90005 6.47451C0.700053 12.8745 -0.399948 19.0745 0.100052 25.1745C2.90005 27.2745 5.60005 28.4745 8.30005 29.3745C9.00005 28.4745 9.50005 27.4745 10.0001 26.4745C9.00005 26.0745 8.10005 25.6745 7.20005 25.1745C7.40005 24.9745 7.70005 24.8745 7.90005 24.6745C13.2001 27.1745 19.0001 27.1745 24.2001 24.6745C24.4001 24.8745 24.6001 25.0745 24.9001 25.1745C24.0001 25.6745 23.1001 26.1745 22.1001 26.4745C22.6001 27.4745 23.2001 28.4745 23.8001 29.3745C26.5001 28.5745 29.2001 27.2745 32.0001 25.1745C32.8001 18.0745 31.0001 11.9745 27.3001 6.47451ZM10.8001 21.3745C9.20005 21.3745 7.90005 19.8745 7.90005 18.0745C7.90005 16.2745 9.20005 14.7745 10.8001 14.7745C12.4001 14.7745 13.7001 16.2745 13.7001 18.0745C13.7001 19.8745 12.4001 21.3745 10.8001 21.3745ZM21.5001 21.3745C19.9001 21.3745 18.6001 19.8745 18.6001 18.0745C18.6001 16.2745 19.9001 14.7745 21.5001 14.7745C23.1001 14.7745 24.4001 16.2745 24.4001 18.0745C24.4001 19.8745 23.1001 21.3745 21.5001 21.3745ZM43.3001 10.7745H50.2001C51.9001 10.7745 53.3001 11.0745 54.4001 11.5745C55.6001 12.0745 56.4001 12.8745 57.0001 13.7745C57.6001 14.6745 57.9001 15.7745 57.9001 17.0745C57.9001 18.2745 57.6001 19.3745 57.0001 20.2745C56.4001 21.2745 55.5001 21.9745 54.3001 22.5745C53.1001 23.1745 51.6001 23.4745 49.7001 23.4745H43.3001V10.7745ZM49.7001 20.1745C50.8001 20.1745 51.7001 19.8745 52.3001 19.2745C52.9001 18.6745 53.2001 17.8745 53.2001 16.9745C53.2001 16.0745 52.9001 15.2745 52.4001 14.7745C51.9001 14.2745 51.0001 13.9745 50.0001 13.9745H47.8001V20.1745H49.7001ZM68.3001 23.4745C67.3001 23.1745 66.5001 22.8745 65.7001 22.3745V19.3745C66.3 19.8745 67.1001 20.1745 68.0001 20.4745C69.0001 20.7745 69.9001 20.8745 70.8001 20.8745C71.2001 20.8745 71.5001 20.7745 71.8001 20.6745C72.0001 20.5745 72.1001 20.3745 72.1001 20.2745C72.1001 20.0745 72.0001 19.9745 71.9001 19.7745C71.8001 19.6745 71.5001 19.5745 71.2001 19.4745L69.1001 18.9745C67.9001 18.6745 67.0001 18.2745 66.5001 17.7745C66.0001 17.2745 65.7001 16.5745 65.7001 15.7745C65.7001 15.0745 65.9001 14.4745 66.4001 13.9745C66.8001 13.4745 67.5001 13.0745 68.3001 12.7745C69.1001 12.4745 70.1001 12.3745 71.2001 12.3745C72.2001 12.3745 73.1001 12.4745 73.9001 12.6745C74.7001 12.8745 75.4001 13.1745 76.0001 13.4745V16.2745C75.4001 15.9745 74.8 15.6745 74.1001 15.4745C73.4001 15.2745 72.6001 15.1745 71.9001 15.1745C70.8001 15.1745 70.2001 15.3745 70.2001 15.7745C70.2001 15.9745 70.3001 16.0745 70.5001 16.1745C70.7001 16.2745 71.0001 16.3745 71.4001 16.4745L73.2001 16.7745C74.4 16.9745 75.2001 17.3745 75.8001 17.8745C76.4001 18.3745 76.7001 19.1745 76.7001 20.1745C76.7001 21.2745 76.2001 22.1745 75.3001 22.7745C74.4001 23.3745 73.0001 23.7745 71.3001 23.7745C70.3001 23.7745 69.3001 23.6745 68.3001 23.4745ZM80.9001 23.0745C79.9001 22.5745 79.1001 21.8745 78.6001 20.9745C78.1001 20.0745 77.8001 19.1745 77.8001 18.0745C77.8001 16.9745 78.1001 15.9745 78.6001 15.1745C79.1001 14.2745 79.9001 13.6745 80.9001 13.1745C81.9001 12.6745 83.2001 12.4745 84.6001 12.4745C86.4001 12.4745 87.8001 12.8745 89.0001 13.5745V16.8745C88.6001 16.5745 88.1001 16.3745 87.6001 16.1745C87.0001 15.9745 86.5001 15.8745 85.8001 15.8745C84.7001 15.8745 83.8 16.0745 83.2001 16.4745C82.6001 16.8745 82.3001 17.3745 82.3001 18.0745C82.3001 18.7745 82.6001 19.2745 83.2001 19.6745C83.8 20.0745 84.7001 20.2745 85.8001 20.2745C86.4001 20.2745 87.0001 20.1745 87.6001 19.9745C88.2001 19.7745 88.7001 19.5745 89.1001 19.3745V22.5745C87.8 23.3745 86.3 23.7745 84.6001 23.7745C83.2001 23.7745 81.9001 23.5745 80.9001 23.0745ZM93.5001 23.0745C92.5001 22.5745 91.7001 21.8745 91.2001 20.9745C90.7001 20.0745 90.4001 19.0745 90.4001 17.9745C90.4001 16.8745 90.7001 15.8745 91.2001 15.0745C91.7001 14.2745 92.5001 13.5745 93.5001 13.0745C94.5001 12.5745 95.7001 12.3745 97.1001 12.3745C98.5001 12.3745 99.7001 12.5745 100.7 13.0745C101.7 13.5745 102.5 14.1745 103 15.0745C103.5 15.8745 103.8 16.8745 103.8 17.9745C103.8 19.0745 103.5 20.0745 103 20.9745C102.5 21.8745 101.7 22.5745 100.7 23.0745C99.7001 23.5745 98.5001 23.8745 97.1001 23.8745C95.8 23.7745 94.5001 23.5745 93.5001 23.0745ZM98.9001 19.8745C99.3001 19.4745 99.5001 18.8745 99.5001 18.1745C99.5001 17.4745 99.3001 16.8745 98.9001 16.4745C98.5001 16.0745 97.9001 15.8745 97.1001 15.8745C96.3 15.8745 95.7001 16.0745 95.3001 16.4745C94.9001 16.8745 94.7001 17.4745 94.7001 18.1745C94.7001 18.8745 94.9001 19.4745 95.3001 19.8745C95.7001 20.2745 96.3 20.5745 97.1001 20.5745C97.9001 20.4745 98.5001 20.2745 98.9001 19.8745ZM114.6 13.0745V16.9745C114.1 16.6745 113.6 16.4745 112.8 16.4745C111.9 16.4745 111.1 16.7745 110.6 17.3745C110.1 17.9745 109.8 18.8745 109.8 20.0745V23.3745H105.4V12.8745H109.7V16.2745C109.9 15.0745 110.3 14.1745 110.8 13.5745C111.3 12.9745 112 12.6745 112.8 12.6745C113.6 12.5745 114.1 12.7745 114.6 13.0745ZM129 10.3745V23.3745H124.6V20.9745C124.2 21.8745 123.7 22.5745 122.9 22.9745C122.1 23.4745 121.2 23.6745 120.1 23.6745C119.1 23.6745 118.3 23.4745 117.5 22.9745C116.8 22.4745 116.2 21.7745 115.8 20.9745C115.4 20.0745 115.2 19.1745 115.2 18.0745C115.2 16.9745 115.4 15.9745 115.8 15.0745C116.2 14.1745 116.8 13.4745 117.6 12.9745C118.4 12.4745 119.3 12.2745 120.3 12.2745C122.4 12.2745 123.8 13.1745 124.5 15.0745V10.3745H129ZM124 19.7745C124.4 19.3745 124.7 18.7745 124.7 18.0745C124.7 17.3745 124.5 16.8745 124.1 16.4745C123.7 16.0745 123.1 15.8745 122.3 15.8745C121.6 15.8745 121 16.0745 120.5 16.4745C120.1 16.8745 119.8 17.4745 119.8 18.1745C119.8 18.8745 120 19.3745 120.5 19.8745C120.9 20.2745 121.5 20.5745 122.2 20.5745C123 20.3745 123.6 20.1745 124 19.7745ZM61.6001 13.9745C62.8001 13.9745 63.8001 13.0745 63.8001 11.9745C63.8001 10.8745 62.8001 9.97451 61.6001 9.97451C60.4001 9.97451 59.4001 10.8745 59.4001 11.9745C59.5001 13.0745 60.4001 13.9745 61.6001 13.9745ZM59.5001 15.3745C60.8001 15.9745 62.5001 15.9745 63.8001 15.3745V23.5745H59.5001V15.3745Z" fill="#02C986"/>
</g>
<defs>
<clipPath id="clip0_85_180">
<rect width="130" height="32" fill="white" transform="translate(0 0.874512)"/>
</clipPath>
</defs>
</svg>
