<svg width="14" height="33" viewBox="0 0 14 33" fill="none" xmlns="http://www.w3.org/2000/svg">
<g id="6515a6d5f30daec433d0ac3c_logo-box-dropbox.svg">
<path id="Vector" d="M13.5001 9.77461L6.8001 14.0746L13.5001 18.3746L6.8001 22.6746L0.100098 18.3746L6.8001 14.0746L0.100098 9.77461L6.8001 5.47461L13.5001 9.77461ZM6.7001 23.9746L13.4001 19.6746L20.1001 23.9746L13.4001 28.2746L6.7001 23.9746ZM13.5001 18.2746L20.2001 13.9746L13.5001 9.77461L20.2001 5.47461L26.9001 9.77461L20.2001 14.0746L26.9001 18.3746L20.2001 22.6746L13.5001 18.2746ZM32.1001 9.77461H37.5001C41.0001 9.77461 43.8001 11.7746 43.8001 16.3746V17.3746C43.8001 21.9746 41.1001 24.0746 37.6001 24.0746H32.1001V9.77461ZM35.1001 12.3746V21.3746H37.4001C39.4001 21.3746 40.7001 20.0746 40.7001 17.2746V16.5746C40.7001 13.7746 39.3001 12.4746 37.3001 12.4746H35.1001V12.3746ZM45.4001 12.4746H47.8001L48.2001 15.1746C48.7001 13.3746 49.8001 12.3746 52.0001 12.3746H52.8001V15.4746H51.6001C49.1001 15.4746 48.5001 16.3746 48.5001 18.7746V24.0746H45.5001L45.4001 12.4746ZM53.3001 18.4746V18.1746C53.3001 14.3746 55.8001 12.2746 59.1001 12.2746C62.5001 12.2746 64.9001 14.3746 64.9001 18.1746V18.4746C64.9001 22.2746 62.6001 24.2746 59.1001 24.2746C55.4001 24.2746 53.3001 22.2746 53.3001 18.4746ZM61.9001 18.4746V18.1746C61.9001 16.0746 60.8001 14.7746 59.1001 14.7746C57.4001 14.7746 56.3001 15.9746 56.3001 18.1746V18.4746C56.3001 20.5746 57.4001 21.6746 59.1001 21.6746C60.8001 21.6746 61.9001 20.4746 61.9001 18.4746ZM66.5001 12.4746H69.0001L69.3001 14.6746C69.9001 13.1746 71.2001 12.1746 73.1001 12.1746C76.0001 12.1746 77.9001 14.2746 77.9001 18.1746V18.4746C77.9001 22.2746 75.8001 24.2746 73.1001 24.2746C71.3001 24.2746 70.0001 23.4746 69.4001 22.1746V27.9746H66.5001V12.4746ZM74.9001 18.4746V18.1746C74.9001 15.8746 73.7001 14.7746 72.2001 14.7746C70.5001 14.7746 69.4001 16.0746 69.4001 18.1746V18.3746C69.4001 20.3746 70.5001 21.6746 72.1001 21.6746C73.8001 21.6746 74.9001 20.5746 74.9001 18.4746ZM82.4001 21.8746L82.1001 23.9746H79.5001V8.67461H82.4001V14.5746C83.0001 13.0746 84.3001 12.2746 86.1001 12.2746C88.8001 12.2746 90.9001 14.1746 90.9001 17.9746V18.3746C90.9001 22.1746 89.0001 24.3746 86.1001 24.3746C84.2001 24.2746 83.0001 23.3746 82.4001 21.8746ZM87.9001 18.2746V17.9746C87.9001 15.8746 86.8001 14.6746 85.2001 14.6746C83.6001 14.6746 82.4001 15.9746 82.4001 17.9746V18.2746C82.4001 20.3746 83.5001 21.6746 85.1001 21.6746C86.9001 21.6746 87.9001 20.5746 87.9001 18.2746ZM92.3001 18.4746V18.1746C92.3001 14.3746 94.8001 12.2746 98.1001 12.2746C101.5 12.2746 103.9 14.3746 103.9 18.1746V18.4746C103.9 22.2746 101.5 24.2746 98.1001 24.2746C94.4001 24.2746 92.3001 22.2746 92.3001 18.4746ZM100.8 18.4746V18.1746C100.8 16.0746 99.7001 14.7746 98.0001 14.7746C96.3001 14.7746 95.2001 15.9746 95.2001 18.1746V18.4746C95.2001 20.5746 96.3001 21.6746 98.0001 21.6746C99.8001 21.6746 100.8 20.4746 100.8 18.4746ZM107.8 17.9746L103.8 12.4746H107.3L109.6 15.8746L112 12.4746H115.4L111.3 17.9746L115.6 23.9746H112.2L109.6 20.1746L107 23.9746H103.5L107.8 17.9746Z" fill="#02C986"/>
</g>
</svg>
