<svg width="90" height="26" viewBox="0 0 90 26" fill="none" xmlns="http://www.w3.org/2000/svg">
<g id="6515a6d5f30daec433d0acbe_wf-marquee-ideo.svg" clip-path="url(#clip0_85_164)">
<path id="Vector" d="M79.1718 2.71387C73.494 2.71387 68.8558 7.27209 68.8558 12.8699C68.8558 18.4677 73.414 23.0259 79.0918 23.0259C84.7696 23.0259 89.3278 18.4677 89.3278 12.8699C89.4078 7.27209 84.8495 2.71387 79.1718 2.71387ZM0.722412 3.51355V6.79227H8.39941V18.8676H0.722412V22.1463H19.3551V18.8676H11.7581V6.87224H19.3551V3.51355H0.722412ZM24.3132 3.51355V22.1463H33.2697C39.0274 22.1463 43.0259 18.0679 43.0259 12.8699C43.0259 7.67193 39.1074 3.75346 33.4296 3.59352H24.3132V3.51355ZM47.1043 3.51355V22.1463H65.8969V18.8676H50.463V14.4693H62.5383V11.2705H50.463V6.87224H65.8969V3.51355H47.1043ZM79.1718 6.23249C82.8503 6.23249 85.8891 9.19134 85.8891 12.8699C85.8891 16.5485 82.8503 19.5073 79.1718 19.5073C75.4932 19.5073 72.4544 16.5485 72.4544 12.8699C72.4544 9.2713 75.4132 6.23249 79.1718 6.23249ZM27.6719 6.79227H33.3497C37.0282 6.87224 39.4273 9.43124 39.4273 12.9499C39.4273 16.4685 37.0282 18.9475 33.2697 19.0275H27.6719V6.79227Z" fill="#02C986"/>
</g>
<defs>
<clipPath id="clip0_85_164">
<rect width="88.7653" height="25.59" fill="white" transform="translate(0.642456 0.074707)"/>
</clipPath>
</defs>
</svg>
