<svg width="134" height="33" viewBox="0 0 134 33" fill="none" xmlns="http://www.w3.org/2000/svg">
<g id="6515a6d5f30daec433d0ac3e_logo-box-monday.svg">
<path id="Vector" d="M3.69999 23.8744C3.19999 23.8744 2.69999 23.7744 2.29999 23.4744C1.89999 23.2744 1.49999 22.8744 1.29999 22.4744C1.09999 22.0744 0.899987 21.5744 0.999987 21.0744C0.999987 20.5744 1.19999 20.0744 1.39999 19.6744L6.39999 11.8744C6.69999 11.4744 6.99999 11.0744 7.39999 10.8744C7.79999 10.6744 8.29999 10.5744 8.79999 10.5744C9.29999 10.5744 9.79999 10.7744 10.2 10.9744C10.6 11.2744 11 11.5744 11.2 12.0744C11.7 12.9744 11.6 13.9744 11.1 14.7744L6.09999 22.5744C5.79999 22.9744 5.49999 23.2744 5.09999 23.4744C4.59999 23.7744 4.09999 23.8744 3.69999 23.8744ZM12.2 23.8744C11.2 23.8744 10.3 23.3744 9.79999 22.4744C9.59999 22.0744 9.39999 21.5744 9.49999 21.0744C9.49999 20.5744 9.69999 20.0744 9.89999 19.6744L14.9 11.8744C15.2 11.4744 15.5 11.0744 15.9 10.8744C16.3 10.6744 16.8 10.4744 17.3 10.5744C18.3 10.5744 19.2 11.1744 19.7 12.0744C20.2 12.9744 20.1 13.9744 19.5 14.8744L14.5 22.6744C14.2 23.0744 13.9 23.3744 13.5 23.5744C13.1 23.7744 12.6 23.8744 12.2 23.8744ZM20.5 23.9744C21.9 23.9744 23.1 22.8744 23.1 21.4744C23.1 20.0744 22 18.9744 20.5 18.9744C19.1 18.9744 17.9 20.0744 17.9 21.4744C17.9 22.8744 19.1 23.9744 20.5 23.9744ZM131.5 19.0744C132.3 19.0744 132.7 19.5744 132.7 20.4744V23.5744H133.7V20.3744C133.7 18.8744 133 17.9744 131.6 17.9744C131.1 17.9744 130.2 18.0744 129.7 19.0744C129.6 18.7744 129.4 18.5744 129.1 18.3744C128.9 18.1744 128.6 18.0744 128.3 18.0744H127.7C127.3 18.0744 126.5 18.3744 126.2 18.9744V18.1744H125.2V23.6744H126.2V20.7744C126.2 19.6744 126.9 19.1744 127.7 19.1744C128.4 19.1744 128.9 19.6744 128.9 20.5744V23.6744H129.9V20.7744C130.1 19.7744 130.6 19.0744 131.5 19.0744ZM121.4 22.6744C121.9 22.6744 122.3 22.4744 122.7 22.1744C123 21.8744 123.2 21.3744 123.2 20.8744C123.2 19.7744 122.4 19.0744 121.4 19.0744C120.4 19.0744 119.6 19.7744 119.6 20.8744C119.6 21.3744 119.8 21.8744 120.1 22.1744C120.5 22.5744 121 22.7744 121.4 22.6744ZM121.4 23.7744C119.9 23.7744 118.6 22.6744 118.6 20.8744C118.6 19.1744 119.9 18.0744 121.4 18.0744C122.9 18.0744 124.2 19.1744 124.2 20.8744C124.3 22.5744 123 23.7744 121.4 23.7744ZM113.2 20.8744C113.2 19.1744 114.5 18.0744 116 18.0744C116.4 18.0744 116.8 18.1744 117.1 18.2744C117.5 18.4744 117.8 18.6744 118 18.9744L117.2 19.6744C117 19.4744 116.8 19.3744 116.6 19.2744C116.4 19.1744 116.1 19.1744 115.9 19.1744C114.9 19.1744 114.1 19.8744 114.1 20.9744C114.1 21.6744 114.5 22.3744 115.2 22.6744C115.9 22.9744 116.7 22.7744 117.2 22.2744L118 22.9744C117.7 23.2744 117.4 23.4744 117.1 23.6744C116.7 23.8744 116.4 23.8744 116 23.8744C114.6 23.7744 113.2 22.5744 113.2 20.8744ZM109.9 22.5744C109.9 22.4744 109.9 22.3744 110 22.2744C110 22.1744 110.1 22.0744 110.2 22.0744L110.4 21.8744C110.5 21.8744 110.6 21.7744 110.7 21.7744C110.8 21.7744 110.9 21.7744 111 21.8744C111.1 21.8744 111.2 21.9744 111.2 22.0744L111.4 22.2744C111.4 22.3744 111.5 22.4744 111.5 22.5744C111.5 22.7744 111.4 22.9744 111.3 23.0744C111.2 23.1744 111 23.2744 110.8 23.2744C110.6 23.2744 110.4 23.1744 110.3 23.0744C110 22.9744 109.9 22.7744 109.9 22.5744ZM112.7 11.2744H109L106.4 17.9744L103.8 11.2744H100.1L104.6 21.9744L101.8 28.9744H105.5L112.7 11.2744ZM90 17.1744C90 18.8744 91.5 19.9744 93 19.9744C94.4 19.9744 95.8 18.9744 95.8 17.1744C95.8 15.3744 94.4 14.3744 93 14.3744C91.5 14.3744 90 15.4744 90 17.1744ZM95.8 23.1744V21.8744C95 22.9744 93.3 23.4744 92.4 23.4744C89.4 23.4744 86.4 21.0744 86.4 17.2744C86.4 13.4744 89.4 11.0744 92.4 11.0744C93.2 11.0744 94.9 11.3744 95.8 12.6744V11.3744H99.3V23.2744L95.8 23.1744ZM85.4 23.1744H81.9V21.6744C81.3 22.7744 79.9 23.3744 78.4 23.3744C75.4 23.3744 72.7 20.9744 72.7 17.1744C72.7 13.3744 75.4 10.9744 78.4 10.9744C79.9 10.9744 81.3 11.5744 81.9 12.6744V4.77441H85.4V23.1744ZM81.9 17.1744C81.9 15.3744 80.6 14.3744 79.2 14.3744C77.7 14.3744 76.5 15.4744 76.5 17.1744C76.5 18.9744 77.7 20.0744 79.2 20.0744C80.6 20.0744 81.9 18.8744 81.9 17.1744ZM64.2 16.8744C64.2 15.0744 65.1 14.4744 66.4 14.4744C67.6 14.4744 68.4 15.2744 68.4 16.8744V23.1744H71.9V16.0744C71.9 12.6744 70.2 11.0744 67.6 11.0744C66.2 11.0744 64.8 11.8744 64.2 13.0744V11.3744H60.7V23.2744H64.2V16.8744ZM53.6 23.3744C50.3 23.3744 47.5 20.9744 47.5 17.1744C47.5 13.4744 50.3 10.9744 53.6 10.9744C56.9 10.9744 59.7 13.3744 59.7 17.1744C59.7 20.8744 56.9 23.3744 53.6 23.3744ZM53.6 19.8744C55.1 19.8744 56.3 18.7744 56.3 17.1744C56.3 15.5744 55.1 14.4744 53.6 14.4744C53.2 14.4744 52.9 14.5744 52.6 14.6744C52.3 14.7744 52 14.9744 51.7 15.2744L51.1 16.1744C51 16.4744 50.9 16.8744 50.9 17.1744C50.9 18.7744 52.1 19.8744 53.6 19.8744ZM41.2 14.4744C42.2 14.4744 43.1 15.2744 43.1 16.8744V23.1744H46.6V16.4744C46.6 12.8744 44.9 11.0744 42.1 11.0744C41.3 11.0744 39.7 11.3744 38.6 13.1744C37.9 11.7744 36.7 11.0744 34.8 11.0744C34.2 11.0744 33.5 11.2744 33 11.5744C32.5 11.8744 32 12.3744 31.7 12.9744V11.2744H28.2V23.1744H31.7V16.8744C31.7 15.0744 32.7 14.4744 33.7 14.4744C34.7 14.4744 35.6 15.2744 35.6 16.7744V23.1744H39.1V16.8744C39.1 15.0744 40.1 14.4744 41.2 14.4744Z" fill="#02C986"/>
</g>
</svg>
