<svg width="98" height="33" viewBox="0 0 98 33" fill="none" xmlns="http://www.w3.org/2000/svg">
<g id="6515a6d5f30daec433d0ac3b_logo-box-ncr.svg">
<path id="Vector" d="M59.6 18.5744C59.6 18.5744 59.4 17.8744 59.4 17.2744V8.97443H62.7V25.0744L52 16.1744C51.4 15.6744 51.1 15.1744 51.1 15.1744C51.1 15.1744 51.3 15.7744 51.3 16.2744V24.6744H48V8.67443L58.6 17.3744C59.2 17.8744 59.6 18.5744 59.6 18.5744ZM89.9 8.97443C95.2 8.97443 96.6 11.0744 96.6 14.0744C96.6 16.2744 95 18.3744 91.8 18.6744H91.4C91.4 18.6744 91.7 18.7744 92 19.0744L97.9 24.7744H93.4L85.2 16.4744H89.3C93 16.4744 93.1 14.5744 93.1 14.0744C93.2 12.8744 92.8 11.8744 90 11.8744H85.3V24.8744H81.8V8.97443H89.9ZM64.3 17.0744C64.3 10.4744 69.8 8.77443 74.4 8.77443C76.3 8.77443 77.9 8.97443 79.6 9.27443V12.5744C78.6 12.2744 76.6 11.5744 74.4 11.5744C70 11.5744 67.9 13.2744 67.9 16.9744C67.9 19.9744 70.2 21.9744 74.4 21.9744C76.6 21.9744 78.9 21.4744 80 21.0744V24.2744C78.3 24.6744 76.3 24.8744 74.4 24.8744C69.5 24.9744 64.3 22.5744 64.3 17.0744ZM26.7 9.37443L30 12.4744C29.9 12.4744 29.8 12.5744 29.7 12.6744C29.5 12.7744 29.3 12.8744 29 13.0744C28.5 13.4744 27.8 14.0744 26.9 14.9744L20.5 21.6744C19.4 22.8744 18.3 23.7744 17.3 24.2744L14 21.1744C14.1 21.1744 14.2 21.0744 14.3 20.9744C14.5 20.8744 14.7 20.7744 15 20.5744C15.5 20.1744 16.2 19.5744 17.1 18.6744L23.5 11.9744C24.5 10.8744 25.6 9.87443 26.7 9.37443ZM14 25.7744C15.4 25.7744 16.8 25.4744 17.7 24.9744C18.1 24.7744 18.7 24.3744 19.2 23.9744C19.7 23.5744 20.4 22.9744 21 22.3744L27.4 15.6744C29 13.9744 30 13.4744 30.6 13.2744L33.9 16.3744C33.2 17.0744 25.1 25.7744 25.1 25.7744C24.5 26.3744 24 26.9744 23.6 27.2744C23.2 27.6744 22.6 28.1744 22.2 28.3744C20.3 29.7744 17.7 30.8744 14.3 30.8744C6.4 30.8744 0 24.5744 0 17.2744C0 8.17443 7.1 2.87443 13.6 2.87443C15.6 2.77443 17.2 3.17443 18.4 3.57443C19.6 3.97443 20.4 4.47443 21.1 4.77443C20.3 5.27443 19.6 5.87443 18.4 7.17443L17.1 8.57443C16.8 8.47443 15.5 7.97443 13.7 8.07443C9.6 8.17443 5 11.5744 5.2 17.0744C5.4 22.2744 9.6 25.7744 14 25.7744ZM26.1 8.77443C25.7 8.97443 25.1 9.37443 24.6 9.77443C24.1 10.1744 23.4 10.7744 22.8 11.3744L16.4 18.0744C14.8 19.7744 13.8 20.2744 13.2 20.4744L10 17.4744C10.7 16.7744 18.8 8.07443 18.8 8.07443C19.4 7.47443 19.9 6.87443 20.3 6.57443C20.7 6.17443 21.3 5.67443 21.7 5.47443C23.6 3.97443 26.2 2.87443 29.6 2.87443C37.4 2.87443 43.7 9.27443 43.7 16.5744C43.7 25.6744 36.6 30.8744 30.1 30.8744C28.1 30.9744 26.5 30.5744 25.3 30.1744C24.1 29.7744 23.3 29.2744 22.6 28.9744C23.4 28.4744 24.1 27.8744 25.3 26.5744L26.6 25.1744C26.9 25.2744 28.2 25.7744 30 25.6744C34.1 25.5744 38.7 22.1744 38.5 16.6744C38.3 11.4744 34.1 8.07443 29.7 8.07443C28.3 7.97443 27 8.27443 26.1 8.77443Z" fill="#02C986"/>
</g>
</svg>
