<svg width="212" height="33" viewBox="0 0 212 33" fill="none" xmlns="http://www.w3.org/2000/svg">
<g id="6515a6d5f30daec433d0ac40_logo-box-nyt.svg" clip-path="url(#clip0_85_159)">
<path id="Vector" d="M17.0331 5.93931C17.0331 3.66031 14.8691 3.09131 13.1601 3.09131V3.43331C14.1851 3.43331 14.9821 3.77431 14.9821 4.57231C14.9821 5.02731 14.6411 5.71131 13.6161 5.71131C12.8181 5.71131 11.1091 5.25531 9.85609 4.80031C8.37609 4.23031 7.01009 3.77431 5.87009 3.77431C3.59209 3.77431 1.99709 5.48331 1.99709 7.42031C1.99709 9.12831 3.25009 9.69831 3.70609 9.92631L3.82009 9.69831C3.59209 9.47031 3.25009 9.24231 3.25009 8.55831C3.25009 8.10331 3.70609 7.30631 4.84509 7.30631C5.87009 7.30631 7.23709 7.76131 9.06009 8.33131C10.6551 8.78631 12.3631 9.12831 13.2751 9.24231V12.7743L11.5661 14.2553V14.3693L13.2751 15.8503V20.7493C12.3631 21.3183 11.3381 21.4323 10.4271 21.4323C8.71809 21.4323 7.23709 20.9763 5.98409 19.6093L10.6541 17.3313V9.47131L4.95909 11.9773C5.41509 10.4973 6.66809 9.47131 7.92109 8.78731L7.80709 8.44631C4.39009 9.35731 1.31409 12.5463 1.31409 16.4203C1.31409 20.9763 5.07309 24.3943 9.28809 24.3943C13.8441 24.3943 16.8061 20.7493 16.8061 16.9893H16.5781C15.8951 18.4703 14.8701 19.8373 13.6171 20.5213V15.8513L15.4391 14.3693V14.2553L13.6171 12.7753V9.24131C15.3251 9.24131 17.0341 8.10231 17.0341 5.93831L17.0331 5.93931ZM7.12309 18.4693L5.75509 19.1533C4.95809 18.1273 4.50209 16.7603 4.50209 14.8233C4.50209 14.0273 4.50209 13.1153 4.73009 12.4323L7.12209 11.4073V18.4693H7.12309ZM19.1971 21.0893L17.7171 22.2293L17.9441 22.4563L18.6281 21.8863L21.1341 24.1653L24.5511 21.8873L24.4371 21.6593L23.5271 22.2293L22.3871 21.0893V13.3443L23.2981 12.6613L25.2351 14.2553V21.2053C25.2351 25.5333 24.3231 26.2163 22.3871 26.9003V27.2423C25.5771 27.3553 28.5381 26.3303 28.5381 20.7483V13.2303L29.5641 12.4333L29.3361 12.2053L28.4241 12.8883L25.5761 10.4963L22.3861 12.8883V3.54831H22.1591L18.1721 6.28131V6.50931C18.6281 6.73731 19.3121 6.96531 19.3121 8.21831L19.1971 21.0893ZM40.0441 19.8363L37.1961 22.0013L34.3481 19.7223V18.3553L39.7021 14.7103V14.5963L36.9681 10.4963L31.0441 13.6853V21.2033L29.9051 22.1143L30.1331 22.3423L31.1581 21.5453L35.0311 24.3933L40.1581 20.2923L40.0441 19.8363ZM34.3481 17.9003V12.3183L34.5761 12.2043L37.0821 16.1913L34.3481 17.9003ZM61.8001 4.91331C61.8001 4.57231 61.6861 4.23031 61.5721 3.88831H61.3451C61.0031 4.80031 60.5471 5.25531 59.4081 5.25531C58.3831 5.25531 57.6991 4.68531 57.2441 4.23031L53.9401 7.99031L54.1681 8.21731L55.3071 7.19231C55.9911 7.76231 56.5601 8.21731 58.1551 8.33131V17.7863L51.4351 6.28031C50.8651 5.37031 50.0681 4.11631 48.4731 4.11631C46.6511 4.11631 45.0561 5.71131 45.2831 8.21631H45.6251C45.7391 7.53331 46.0811 6.73631 46.8781 6.73631C47.4481 6.73631 48.0181 7.30631 48.3591 7.87631V11.6343C46.3091 11.6343 44.9421 12.5463 44.9421 14.2543C44.9421 15.1663 45.3981 16.5333 46.7641 16.8743V16.6473C46.5371 16.4193 46.4231 16.1913 46.4231 15.8493C46.4231 15.2793 46.8781 14.8243 47.6761 14.8243H48.2461V19.6083C45.8531 19.6083 43.9161 20.9753 43.9161 23.2543C43.9161 25.4183 45.7391 26.4443 47.7901 26.3293V26.1013C46.5371 25.9873 45.9671 25.4183 45.9671 24.6213C45.9671 23.5953 46.6511 23.1403 47.5621 23.1403C48.4731 23.1403 49.2711 23.7103 49.8401 24.3933L53.1441 20.7483L52.9161 20.5203L52.1181 21.4313C50.8651 20.2913 50.1821 19.9513 48.7011 19.7223V8.33131L57.8141 24.2793H58.4981V8.33131C60.2061 8.21731 61.8001 6.85031 61.8001 4.91331ZM70.1161 19.8363L67.2681 22.0013L64.4201 19.7223V18.3553L69.7741 14.7103V14.5963L67.0401 10.4963L61.1171 13.6853V21.2033L59.9771 22.1143L60.2051 22.3423L61.2311 21.5453L65.1041 24.3933L70.2301 20.2923L70.1161 19.8363ZM64.4201 17.9003V12.3183L64.6481 12.2043L67.1541 16.1913L64.4201 17.9003ZM88.6841 11.7483L87.8861 12.3183L85.7221 10.4953L83.2161 12.7733L84.2411 13.7993V22.3423L81.5071 20.6343V13.5713L82.4191 13.0013L79.7991 10.4953L77.2921 12.7733L78.3181 13.7993V22.0003L77.9761 22.2283L75.5841 20.5203V13.6843C75.5841 12.0893 74.7861 11.6343 73.8751 11.0643C73.0781 10.4943 72.6221 10.1523 72.6221 9.35531C72.6221 8.67231 73.3051 8.33031 73.6471 8.10231V7.87431C72.7361 7.87431 70.3441 8.78531 70.3441 10.9503C70.3441 12.0893 70.9141 12.5453 71.4831 13.1143C72.0531 13.6843 72.6221 14.1403 72.6221 15.1643V21.7743L71.3691 22.6853L71.5971 22.9133L72.7361 22.0013L75.3561 24.2803L78.2041 22.3433L81.3941 24.2803L87.4311 20.7483V13.1163L88.9111 11.9773L88.6841 11.7493V11.7483ZM109.872 5.48331L108.733 6.50831L106.227 4.23031L102.467 6.96431V4.45831H102.126L102.24 22.9123C101.898 22.9123 100.873 22.6843 100.075 22.4563L99.8471 7.07831C99.8471 5.93831 99.0501 4.34431 97.0001 4.34431C94.9501 4.34431 93.5821 5.93931 93.5821 7.53431H93.9241C94.0381 6.85031 94.3801 6.28031 95.0631 6.28031C95.7461 6.28031 96.3161 6.73631 96.3161 8.21731V12.6603C94.2661 12.7743 93.0131 13.9133 93.0131 15.3943C93.0131 16.3043 93.4681 17.6723 94.8351 17.6723V17.4443C94.3791 17.2163 94.2651 16.8743 94.2651 16.6473C94.2651 15.9633 94.8351 15.7353 95.7461 15.7353H96.2021V22.7983C94.4931 23.3683 93.8101 24.6213 93.8101 25.9883C93.8101 27.9243 95.2901 29.2913 97.5701 29.2913C99.1641 29.2913 100.53 29.0633 101.898 28.7213C103.037 28.4943 104.518 28.1513 105.201 28.1513C106.113 28.1513 106.454 28.6073 106.454 29.1773C106.454 29.9743 106.113 30.3173 105.657 30.4303V30.6583C107.48 30.3163 108.619 29.1783 108.619 27.4683C108.619 25.7603 106.91 24.7343 105.087 24.7343C104.176 24.7343 102.24 25.0763 100.873 25.3043C99.2781 25.6463 97.6831 25.8743 97.2271 25.8743C96.4301 25.8743 95.5191 25.5323 95.5191 24.3933C95.5191 23.4813 96.3161 22.6843 98.2531 22.6843C99.2781 22.6843 100.531 22.7983 101.784 23.1403C103.151 23.4813 104.404 23.8233 105.543 23.8233C107.252 23.8233 108.733 23.2533 108.733 20.8613V6.85031L110.1 5.71031L109.872 5.48331ZM105.201 12.4323C104.86 12.7733 104.404 13.1153 103.834 13.1153C103.265 13.1153 102.695 12.7743 102.467 12.4323V7.42031L103.607 6.62231L105.201 8.10331V12.4323ZM105.201 15.8493C104.974 15.6213 104.404 15.2793 103.834 15.2793C103.265 15.2793 102.695 15.6213 102.467 15.8493V12.8873C102.695 13.1153 103.265 13.4573 103.834 13.4573C104.404 13.4573 104.974 13.1153 105.201 12.8873V15.8493ZM105.201 21.2033C105.201 22.1143 104.632 23.0263 103.379 23.0263H102.467V16.3043C102.695 16.0763 103.265 15.7343 103.834 15.7343C104.404 15.7343 104.86 16.0763 105.201 16.3043V21.2033ZM120.808 13.1153L117.162 10.4953L111.581 13.6853V21.0893L110.441 22.0013L110.555 22.2283L111.467 21.5453L115.112 24.2793L120.808 20.8613V13.1153ZM114.656 20.2923V12.0903L117.504 14.1403V22.2283L114.656 20.2923ZM131.629 10.7233H131.402C131.06 10.9513 130.718 11.1793 130.376 11.1793C129.921 11.1793 129.351 10.9513 129.123 10.6093H128.895L126.96 12.7743L125.023 10.6093L121.606 12.8873L121.72 13.1153L122.631 12.5453L123.77 13.7993V20.9743L122.289 22.1143L122.517 22.3413L123.201 21.7713L125.935 24.0503L129.466 21.6583L129.352 21.4303L128.327 22.0003L126.96 20.8603V12.8863C127.529 13.4563 128.213 14.0263 129.01 14.0263C130.605 14.1403 131.516 12.5453 131.63 10.7223L131.629 10.7233ZM145.299 21.6593L141.426 24.2793L136.186 16.3053L139.945 10.4953H140.173C140.629 10.9513 141.312 11.4073 142.109 11.4073C142.907 11.4073 143.476 10.9513 143.818 10.4953H144.046C143.932 12.7733 142.337 14.1413 141.198 14.1413C140.059 14.1413 139.489 13.5713 138.806 13.2293L138.464 13.7993L144.16 22.2293L145.299 21.5453V21.6593ZM132.769 21.0893L131.288 22.2293L131.515 22.4563L132.199 21.8863L134.705 24.1653L138.122 21.8873L137.895 21.6593L136.983 22.2293L135.844 21.0893V3.54631H135.73L131.629 6.28031V6.50831C132.085 6.73631 132.769 6.85031 132.769 8.21731V21.0893ZM164.209 5.93931C164.209 3.66031 162.044 3.09131 160.336 3.09131V3.43331C161.361 3.43331 162.158 3.77431 162.158 4.57231C162.158 5.02731 161.817 5.71131 160.791 5.71131C159.994 5.71131 158.285 5.25531 157.032 4.80031C155.551 4.34431 154.184 3.88831 153.045 3.88831C150.767 3.88831 149.172 5.59731 149.172 7.53331C149.172 9.24331 150.425 9.81231 150.881 10.0403L150.995 9.81231C150.653 9.58431 150.311 9.35631 150.311 8.67231C150.311 8.21731 150.767 7.42031 151.906 7.42031C152.931 7.42031 154.298 7.87531 156.121 8.44531C157.716 8.90031 159.424 9.24231 160.336 9.35631V12.8873L158.627 14.3683V14.4823L160.336 15.9633V20.8613C159.424 21.4313 158.399 21.5453 157.488 21.5453C155.779 21.5453 154.298 21.0893 153.045 19.7223L157.716 17.4443V9.47031L152.02 11.9763C152.59 10.4963 153.843 9.47031 154.982 8.67331L154.868 8.44531C151.45 9.35631 148.375 12.4323 148.375 16.3053C148.375 20.8613 152.134 24.2793 156.349 24.2793C160.905 24.2793 163.867 20.6343 163.867 16.8743H163.64C162.957 18.3553 161.931 19.7223 160.678 20.4063V15.7363L162.501 14.2543V14.1403L160.792 12.6603V9.24231C162.501 9.24231 164.21 8.10331 164.21 5.93931H164.209ZM154.298 18.4693L152.931 19.1533C152.134 18.1273 151.678 16.7603 151.678 14.8233C151.678 14.0273 151.792 13.1153 152.02 12.4323L154.412 11.4073L154.298 18.4693ZM168.196 4.79931H168.082L165.804 6.73631V6.85031L167.74 9.01431H167.968L170.246 7.07831V6.96431L168.196 4.80031V4.79931ZM171.613 21.6593L170.702 22.2293L169.563 21.0893V13.2293L170.702 12.4323L170.474 12.2043L169.677 12.8873L167.626 10.4953L164.323 12.7733L164.551 13.1153L165.348 12.5453L166.373 13.7993V21.2033L164.892 22.3433L165.006 22.5703L165.804 22.0003L168.31 24.2793L171.727 22.0003L171.613 21.6593ZM190.637 21.5453L189.839 22.1153L188.586 20.9753V13.2293L189.725 12.3183L189.498 12.0903L188.586 12.8873L185.966 10.4953L182.549 12.8873L179.929 10.4953L176.739 12.8873L174.689 10.4953L171.385 12.7733L171.499 13.1153L172.297 12.5453L173.436 13.7993V21.2033L172.524 22.1143L175.144 24.2793L177.651 22.0003L176.625 20.9753V13.2293L177.651 12.5463L179.359 14.1413V20.9743L178.448 21.8863L181.068 24.0503L183.574 21.7723L182.549 20.7463V13.2283L183.46 12.6583L185.283 14.2533V21.0883L184.485 21.8863L187.105 24.2783L190.637 21.8863V21.5453ZM200.547 19.8363L197.699 22.0013L194.852 19.7223V18.3553L200.206 14.7103V14.5963L197.472 10.4963L191.548 13.6853V21.4313L195.535 24.2793L200.661 20.1783L200.547 19.8363ZM194.852 17.9003V12.3183L195.079 12.2043L197.586 16.1913L194.852 17.9003ZM210.914 16.8743L208.75 15.1663C210.231 13.9133 210.801 12.2043 210.801 11.0653V10.3813H210.573C210.345 10.9513 209.889 11.5213 208.978 11.5213C208.067 11.5213 207.497 11.0653 206.927 10.3813L201.801 13.2293V17.3303L203.738 18.8103C201.801 20.5203 201.46 21.6593 201.46 22.5703C201.46 23.7103 202.029 24.5073 202.94 24.8483L203.054 24.6213C202.827 24.3933 202.599 24.2793 202.599 23.7093C202.599 23.3683 203.054 22.7983 203.966 22.7983C205.105 22.7983 205.788 23.5953 206.13 23.9383L211.028 20.9753V16.8753L210.914 16.8743ZM209.661 13.4573C208.864 14.8243 207.155 16.1913 206.13 16.8743L204.877 15.8493V11.8623C205.333 13.0023 206.586 13.9123 207.839 13.9123C208.636 13.9123 209.092 13.7993 209.661 13.4573ZM207.725 22.5703C207.155 21.3173 205.788 20.4063 204.421 20.4063C204.08 20.4063 203.168 20.4063 202.257 20.9763C202.827 20.0643 204.307 18.4693 206.244 17.3303L207.611 18.4703L207.725 22.5703Z" fill="#02C986"/>
</g>
<defs>
<clipPath id="clip0_85_159">
<rect width="211" height="32" fill="white" transform="translate(0.640137 0.874512)"/>
</clipPath>
</defs>
</svg>
