<svg width="66" height="51" viewBox="0 0 66 51" fill="none" xmlns="http://www.w3.org/2000/svg">
<g id="6515a6d5f30daec433d0ac43_logo-box-pwc.svg" clip-path="url(#clip0_85_174)">
<path id="Vector" d="M43.6492 34.0976C41.663 34.4541 40.58 35.882 40.58 38.4694C40.58 41.0569 41.9338 42.8412 44.1008 42.8412C45.093 42.8412 45.997 42.4847 47.8932 41.5925V43.7334C45.6354 44.7148 44.2816 45.0721 42.4753 45.0721C40.4891 45.0721 39.1353 44.5365 37.9614 43.3769C36.7883 42.2164 36.246 40.7003 36.246 39.0042C36.246 35.2572 39.0453 32.7597 43.1977 32.7597C45.9062 32.7597 47.8024 34.0084 47.8024 35.7928C47.8024 36.9533 46.8993 37.7555 45.6354 37.7555C45.0039 37.7555 44.4615 37.5772 43.7392 37.2207V34.0976H43.6492ZM33.6283 39.095C35.4337 36.8641 36.066 35.8828 36.066 34.8123C36.066 33.7419 35.1629 32.8497 33.989 32.8497C33.2667 32.8497 32.6352 33.2062 32.2736 33.5628V38.2028L29.2943 42.1282V33.2062H26.4958L21.7111 40.7903V33.1163H20.0856L15.8424 34.1867V35.2572L18.1902 35.5254V44.9813H21.1695L25.6835 37.6655V44.9813H29.0235L33.6283 39.0934V39.095ZM6.81456 35.5254C7.53773 35.4363 7.80766 35.4363 8.1684 35.4363C10.1554 35.4363 11.2385 36.685 11.2385 39.1833C11.2385 42.0382 9.97465 43.5552 7.53689 43.5552H6.90538V35.5246H6.81456V35.5254ZM6.81456 44.8039C7.62687 44.893 8.3492 44.893 8.80076 44.893C12.864 44.893 15.3917 42.3056 15.3917 38.5585C15.3917 35.2572 13.4955 32.938 10.8778 32.938C9.79386 32.938 8.98155 33.2054 6.81456 34.4541V32.848H5.64151L0.946777 34.2767V35.4371H2.93298V48.6417L1.12673 49.0874V50.1579H8.80076V49.0874L6.81456 48.6417V44.8039ZM29.2943 26.0679H41.0324V23.213H29.2934L29.2943 26.0679ZM65.949 16.7003V23.213H41.0324L41.0315 0.908203H53.761V3.49564H56.3787V7.33182H62.6081V16.6994L65.949 16.7003ZM56.3787 8.31231V16.7886H61.705V8.31315H56.3787V8.31231ZM41.933 16.6986H48.0715V14.3811H41.933V16.7003V16.6986ZM41.933 7.33098H52.7671V4.38784H41.9338L41.933 7.33098ZM41.933 8.31231V13.4872H48.9746V16.6994H52.7671V8.31231H41.933ZM41.933 22.2308H48.0715V17.5908H41.933V22.2308ZM48.9746 22.2308H52.7671V17.5908H48.9746V22.2308ZM53.7593 22.2308H55.4748V17.5908H53.7593V22.2308ZM55.4748 16.6986V8.31315H53.7593V16.7894H55.4748V16.6994V16.6986ZM53.7593 4.387V7.33014H55.4748V4.387H53.7593ZM41.9346 3.49564H52.7688V1.8004H41.9338V3.49564H41.9346ZM61.7067 22.2308V17.5916H56.3787V22.2317H61.7058L61.7067 22.2308ZM65.0467 17.5916H62.6998V22.2317H65.0467V17.5916Z" fill="#02C986"/>
</g>
<defs>
<clipPath id="clip0_85_174">
<rect width="65.59" height="50.4538" fill="white" transform="translate(0.400146 0.472656)"/>
</clipPath>
</defs>
</svg>
