<svg width="40" height="40" viewBox="0 0 40 40" fill="none" xmlns="http://www.w3.org/2000/svg">
<g id="devicon:slack" clip-path="url(#clip0_210_72985)">
<path id="Vector" d="M8.51758 25.2247C8.51758 27.5153 6.64945 29.3862 4.35852 29.3862C2.06789 29.3862 0.197266 27.5153 0.197266 25.2247C0.197266 22.934 2.0682 21.0631 4.35883 21.0631H8.51789L8.51758 25.2247ZM10.6141 25.2247C10.6141 22.934 12.4851 21.0631 14.7757 21.0631C17.0663 21.0631 18.9373 22.9337 18.9373 25.2247V35.6419C18.9373 37.9325 17.0666 39.8034 14.7757 39.8034C12.4851 39.8034 10.6141 37.9325 10.6141 35.6419V25.2247Z" fill="#DE1C59"/>
<path id="Vector_2" d="M14.7757 8.51718C12.4851 8.51718 10.6141 6.64906 10.6141 4.35812C10.6141 2.06749 12.4851 0.196869 14.7757 0.196869C17.0663 0.196869 18.9373 2.06781 18.9373 4.35843V8.51749L14.7757 8.51718ZM14.7757 10.6137C17.0663 10.6137 18.9373 12.4847 18.9373 14.7753C18.9373 17.0659 17.0666 18.9369 14.7757 18.9369H4.35852C2.06789 18.9369 0.197266 17.0662 0.197266 14.7753C0.197266 12.4847 2.0682 10.6137 4.35883 10.6137H14.7757Z" fill="#35C5F0"/>
<path id="Vector_3" d="M31.4832 14.7753C31.4832 12.4847 33.3513 10.6137 35.6422 10.6137C37.9329 10.6137 39.8038 12.4847 39.8038 14.7753C39.8038 17.0659 37.9329 18.9369 35.6422 18.9369H31.4832V14.7753ZM29.3866 14.7753C29.3866 17.0659 27.5157 18.9369 25.225 18.9369C22.9344 18.9369 21.0635 17.0662 21.0635 14.7753V4.35812C21.0635 2.06749 22.9341 0.196869 25.225 0.196869C27.5157 0.196869 29.3866 2.06781 29.3866 4.35843V14.7753Z" fill="#2EB57D"/>
<path id="Vector_4" d="M25.225 31.4828C27.5157 31.4828 29.3866 33.3509 29.3866 35.6419C29.3866 37.9325 27.5157 39.8034 25.225 39.8034C22.9344 39.8034 21.0635 37.9325 21.0635 35.6419V31.4828H25.225ZM25.225 29.3862C22.9344 29.3862 21.0635 27.5153 21.0635 25.2247C21.0635 22.934 22.9341 21.0631 25.225 21.0631H35.6422C37.9329 21.0631 39.8038 22.9337 39.8038 25.2247C39.8038 27.5153 37.9329 29.3862 35.6422 29.3862H25.225Z" fill="#EBB02E"/>
</g>
<defs>
<clipPath id="clip0_210_72985">
<rect width="40" height="40" fill="white"/>
</clipPath>
</defs>
</svg>
