<svg width="40" height="38" viewBox="0 0 40 38" fill="none" xmlns="http://www.w3.org/2000/svg">
<g id="logos:microsoft-teams" clip-path="url(#clip0_210_72990)">
<path id="Vector" d="M27.9003 13.9534H38.2323C39.2086 13.9534 39.9998 14.7448 39.9998 15.7209V25.132C39.9998 28.7195 37.0916 31.628 33.5041 31.628H33.4733C29.8858 31.6284 26.977 28.7206 26.9766 25.133V14.8773C26.9765 14.756 27.0004 14.6359 27.0468 14.5238C27.0932 14.4117 27.1613 14.3098 27.2471 14.224C27.3328 14.1383 27.4347 14.0702 27.5468 14.0238C27.6589 13.9773 27.779 13.9534 27.9003 13.9534Z" fill="#5059C9"/>
<path id="Vector_2" d="M34.8834 12.0931C37.1953 12.0931 39.0695 10.219 39.0695 7.90704C39.0695 5.59513 37.1953 3.72095 34.8834 3.72095C32.5714 3.72095 30.6973 5.59513 30.6973 7.90704C30.6973 10.219 32.5714 12.0931 34.8834 12.0931Z" fill="#5059C9"/>
<path id="Vector_3" d="M21.861 12.0931C25.2004 12.0931 27.9076 9.38599 27.9076 6.04656C27.9076 2.70714 25.2004 0 21.861 0C18.5216 0 15.8145 2.70714 15.8145 6.04656C15.8145 9.38599 18.5216 12.0931 21.861 12.0931Z" fill="#7B83EB"/>
<path id="Vector_4" d="M29.9231 13.9534H12.8682C11.9037 13.9773 11.1407 14.7778 11.1631 15.7423V26.4762C11.0284 32.2644 15.6076 37.0676 21.3956 37.2094C27.1835 37.0676 31.7627 32.2644 31.6282 26.4762V15.7423C31.6506 14.7778 30.8876 13.9773 29.9231 13.9534Z" fill="#7B83EB"/>
<path id="Vector_5" opacity="0.1" d="M22.3256 13.9534V28.9953C22.3233 29.3327 22.2215 29.6619 22.0328 29.9416C21.8441 30.2213 21.5771 30.439 21.2651 30.5675C21.062 30.6534 20.8437 30.6976 20.6232 30.6976H11.9812C11.8602 30.3906 11.7487 30.0836 11.6556 29.7675C11.3299 28.7001 11.1638 27.5904 11.1626 26.4744V15.7395C11.1402 14.7766 11.902 13.9773 12.8649 13.9536L22.3256 13.9534Z" fill="black"/>
<path id="Vector_6" opacity="0.2" d="M21.3949 13.9534V29.9256C21.3949 30.1461 21.3507 30.3644 21.2648 30.5675C21.1363 30.8795 20.9186 31.1466 20.6389 31.3352C20.3592 31.5239 20.03 31.6257 19.6926 31.628H12.4184C12.2602 31.3209 12.1113 31.0139 11.9812 30.6976C11.8561 30.3936 11.7475 30.0831 11.6556 29.7675C11.3299 28.7001 11.1638 27.5904 11.1626 26.4744V15.7395C11.1402 14.7766 11.902 13.9773 12.8649 13.9536L21.3949 13.9534Z" fill="black"/>
<path id="Vector_7" opacity="0.2" d="M21.3951 13.9534V28.0651C21.3881 29.0023 20.6301 29.7605 19.6927 29.7675H11.6556C11.3299 28.7001 11.1638 27.5904 11.1626 26.4744V15.7395C11.1402 14.7766 11.902 13.9773 12.8649 13.9536L21.3951 13.9534Z" fill="black"/>
<path id="Vector_8" opacity="0.2" d="M20.4649 13.9534V28.0651C20.4577 29.0023 19.6998 29.7605 18.7626 29.7675H11.6556C11.3299 28.7001 11.1638 27.5904 11.1626 26.4744V15.7395C11.1402 14.7766 11.902 13.9773 12.8649 13.9536L20.4649 13.9534Z" fill="black"/>
<path id="Vector_9" opacity="0.1" d="M22.3257 9.14424V12.0744C22.1675 12.0838 22.0186 12.0931 21.8605 12.0931C21.7024 12.0931 21.5535 12.0838 21.3954 12.0744C21.0814 12.0536 20.77 12.0038 20.4652 11.9256C19.5365 11.7057 18.6731 11.2691 17.9455 10.6515C17.218 10.0339 16.6469 9.25284 16.2791 8.37221C16.1507 8.07219 16.0511 7.7607 15.9814 7.44189H20.6233C21.5619 7.44549 22.3221 8.20549 22.3257 9.14424Z" fill="black"/>
<path id="Vector_10" opacity="0.2" d="M21.3954 10.0744V12.0744C21.0814 12.0536 20.77 12.0038 20.4652 11.9256C19.5366 11.7057 18.6732 11.2691 17.9457 10.6515C17.2181 10.0338 16.6471 9.2528 16.2793 8.37219H19.693C20.6318 8.37563 21.3918 9.13579 21.3954 10.0744Z" fill="black"/>
<path id="Vector_11" opacity="0.2" d="M21.3954 10.0744V12.0744C21.0814 12.0536 20.77 12.0038 20.4652 11.9256C19.5366 11.7057 18.6732 11.2691 17.9457 10.6515C17.2181 10.0338 16.6471 9.2528 16.2793 8.37219H19.693C20.6318 8.37563 21.3918 9.13579 21.3954 10.0744Z" fill="black"/>
<path id="Vector_12" opacity="0.2" d="M20.4654 10.0744V11.9256C19.5367 11.7057 18.6733 11.269 17.9457 10.6514C17.2181 10.0338 16.6471 9.25267 16.2793 8.37201H18.763C19.7018 8.3756 20.4618 9.13576 20.4654 10.0744Z" fill="black"/>
<path id="Vector_13" d="M1.70516 8.37204H18.7598C19.7017 8.37204 20.4652 9.13548 20.4652 10.0772V27.132C20.4652 28.0738 19.7017 28.8372 18.76 28.8372H1.70516C0.763438 28.8372 0 28.0738 0 27.132V10.0774C0 9.13532 0.763438 8.37204 1.70516 8.37204Z" fill="url(#paint0_linear_210_72990)"/>
<path id="Vector_14" d="M14.72 14.8633H11.3106V24.147H9.13855V14.8633H5.74512V13.0623H14.72V14.8633Z" fill="white"/>
</g>
<defs>
<linearGradient id="paint0_linear_210_72990" x1="355.521" y1="-124.857" x2="1691.01" y2="2188.12" gradientUnits="userSpaceOnUse">
<stop stop-color="#5A62C3"/>
<stop offset="0.5" stop-color="#4D55BD"/>
<stop offset="1" stop-color="#3940AB"/>
</linearGradient>
<clipPath id="clip0_210_72990">
<rect width="40" height="37.3438" fill="white"/>
</clipPath>
</defs>
</svg>
