<svg width="56" height="33" viewBox="0 0 56 33" fill="none" xmlns="http://www.w3.org/2000/svg">
<g id="6515a6d5f30daec433d0ac41_logo-box-ted.svg">
<path id="Vector" d="M6.25408 11.9795H0.778076V6.87451H17.7951V11.9795H12.3181V26.8745H6.25408V11.9795ZM18.7361 6.87451H35.2821V11.9795H24.8021V14.4425H35.2821V19.2465H24.8021V21.7695H35.2821V26.8745H18.7361V6.87451ZM36.2821 6.87451H46.2321C52.7691 6.87451 55.0641 11.7995 55.0641 16.8445C55.0641 22.9705 51.8841 26.8745 45.0541 26.8745H36.2821V6.87451ZM42.3471 21.7695H44.7011C48.4691 21.7695 49.0011 18.6465 49.0011 16.7845C49.0011 15.5235 48.5881 12.0395 44.2311 12.0395H42.2871L42.3471 21.7695Z" fill="#02C986"/>
</g>
</svg>
