<svg width="90" height="33" viewBox="0 0 90 33" fill="none" xmlns="http://www.w3.org/2000/svg">
<g id="6515a6d5f30daec433d0ac45_logo-box-upwork.svg" clip-path="url(#clip0_85_169)">
<path id="Vector" d="M57.9002 9.67461C54.0002 9.67461 50.9002 12.8746 50.9002 16.8746C50.9002 20.8746 54.1002 23.9746 58.0002 23.9746C61.9002 23.9746 65.0002 20.7746 65.0002 16.7746C65.0002 12.8746 61.8002 9.67461 57.9002 9.67461ZM58.0002 21.0746C56.9002 21.0746 55.8002 20.6746 55.1002 19.8746C54.3002 19.0746 53.9002 18.0746 53.9002 16.9746C53.9002 15.8746 54.3002 14.7746 55.1002 14.0746C55.9002 13.2746 56.9002 12.8746 58.0002 12.8746C59.1002 12.8746 60.2002 13.2746 60.9002 14.0746C61.7002 14.8746 62.1002 15.8746 62.1002 16.9746C62.1002 19.0746 60.2002 21.0746 58.0002 21.0746ZM73.6002 13.0746C71.6002 13.0746 70.0002 14.7746 70.0002 16.7746V23.5746H66.9002V10.0746H70.0002V12.1746C70.0002 12.1746 71.3002 10.0746 74.0002 10.0746H74.9002V13.0746H73.6002ZM42.8002 10.1746L45.1002 19.3746L47.5002 10.0746H50.6002L46.8002 23.5746H43.8002L41.4002 14.1746L39.1002 23.5746H36.1002L32.1002 10.0746H35.1002L37.8002 19.2746L40.0002 9.97461L42.8002 10.1746ZM83.9002 16.1746C86.0002 14.9746 87.5002 12.6746 87.5002 9.97461H84.4002C84.4002 12.2746 82.6002 14.1746 80.4002 14.1746H80.0002V3.47461H76.9002L77.0002 23.4746H80.1002V17.1746H80.5002C80.9002 17.1746 81.2002 17.3746 81.3002 17.5746L85.6002 23.4746H89.2002L83.9002 16.1746ZM24.9002 9.87461C21.6002 9.87461 19.0002 12.0746 18.1002 15.6746C16.5002 13.1746 15.3002 10.3746 14.5002 7.97461H11.0002V17.2746C11.0002 18.1746 10.7002 18.9746 10.0002 19.6746C9.4002 20.2746 8.5002 20.6746 7.60019 20.6746C6.70019 20.6746 5.9002 20.3746 5.2002 19.6746C4.6002 19.0746 4.2002 18.1746 4.2002 17.2746V7.97461H0.700195V17.2746C0.700195 21.1746 3.80019 24.1746 7.60019 24.1746C11.4002 24.1746 14.5002 21.0746 14.4002 17.1746V15.5746C15.1002 16.9746 16.0002 18.4746 17.0002 19.7746L14.8002 30.0746H18.4002L20.0002 22.5746C21.4002 23.4746 23.0002 23.9746 24.9002 23.9746C28.8002 23.9746 31.9002 20.7746 31.9002 16.6746C31.9002 14.7746 31.1002 12.9746 29.8002 11.6746C28.6002 10.5746 26.8002 9.87461 24.9002 9.87461ZM25.0002 20.4746C23.6002 20.4746 22.2002 19.8746 21.0002 18.8746L21.3002 17.4746V17.3746C21.6002 15.8746 22.3002 13.2746 25.0002 13.2746C25.9002 13.2746 26.8002 13.6746 27.5002 14.2746C28.2002 14.9746 28.5002 15.7746 28.6002 16.7746C28.5002 18.8746 26.9002 20.4746 25.0002 20.4746Z" fill="#02C986"/>
</g>
<defs>
<clipPath id="clip0_85_169">
<rect width="89" height="32" fill="white" transform="translate(0.400146 0.874512)"/>
</clipPath>
</defs>
</svg>
